<svg width="25" height="24" viewBox="0 0 25 24" fill="none" xmlns="http://www.w3.org/2000/svg">
<path d="M11.6667 19C16.085 19 19.6667 15.4183 19.6667 11C19.6667 6.58172 16.085 3 11.6667 3C7.24847 3 3.66675 6.58172 3.66675 11C3.66675 15.4183 7.24847 19 11.6667 19Z" fill="#FFE5E5"/>
<path d="M21.6667 21L17.3167 16.65M11.6667 6C14.4282 6 16.6667 8.23858 16.6667 11M19.6667 11C19.6667 15.4183 16.085 19 11.6667 19C7.24847 19 3.66675 15.4183 3.66675 11C3.66675 6.58172 7.24847 3 11.6667 3C16.085 3 19.6667 6.58172 19.6667 11Z" stroke="#800000" stroke-width="1.5" stroke-linecap="round" stroke-linejoin="round"/>
</svg>
